# xmcd
#
# Track frame offsets: 
#        183
#        13870
#        25670
#        37078
#        51508
#        62108
#        76283
#        87745
#        97843
#        114570
#        128033
#        137728
#        150520
#        163930
#        178255
#        191558
#        204980
#        218113
#        234023
#        247958
#        259123
#        273853
#        283680
#        301233
#        321845
#
# Disc length: 4502 seconds
#
# Revision: 3
# Processed by: cddbd v1.5.2PL0 Copyright (c) Steve Scherf et al.
# Submitted via: ExactAudioCopy v0.99pb4
#
DISCID=5e119419
DTITLE=Jane Birkin - Intégrale Des Enregistrements ''Studio'' CD 3
DYEAR=1992
DGENRE=Chanson
TTITLE0=Ex-Fan Des Sixties
TTITLE1=Apocalypstick
TTITLE2=Exercice En Forme De Z
TTITLE3=Mélodie Interdite
TTITLE4=L'Aquoiboniste
TTITLE5=Vie Mort Et Resurrection D'un Amour Passion
TTITLE6=Nicotine
TTITLE7=Rocking Chair
TTITLE8=Dépressive
TTITLE9=Le Velours Des Vierges
TTITLE10=Classée X
TTITLE11=Melo Melo
TTITLE12=Baby Lou
TTITLE13=Fuir Les Bonheur De Peur Qu'il Ne Se Sauve
TTITLE14=Partie Perdue
TTITLE15=Norma Jean Baker
TTITLE16=Haine Pour Aime
TTITLE17=Overseas Telegram
TTITLE18=Con C'est Con Ces Conséquences
TTITLE19=En Rire De Peur D'être Obligé D'en Pleurer
TTITLE20=Rupture Au Miroir
TTITLE21=Les Dessous Chics
TTITLE22=Baby Alone In Babylone
TTITLE23=Quoi (Guido and Maurizio De Angelis)
TTITLE24=Come Un Gabbiano (Guido and Maurizio De Angelis)
EXTD=
EXTT0=
EXTT1=
EXTT2=
EXTT3=
EXTT4=
EXTT5=
EXTT6=
EXTT7=
EXTT8=
EXTT9=
EXTT10=
EXTT11=
EXTT12=
EXTT13=
EXTT14=
EXTT15=
EXTT16=
EXTT17=
EXTT18=
EXTT19=
EXTT20=
EXTT21=
EXTT22=
EXTT23=
EXTT24=
PLAYORDER=
